<?xml version="1.0" standalone="no"?>
<!DOCTYPE svg PUBLIC "-//W3C//DTD SVG 20010904//EN" "http://www.w3.org/TR/2001/REC-SVG-20010904/DTD/svg10.dtd">
<svg version="1.0" xmlns="http://www.w3.org/2000/svg" width="1024pt" height="1024pt" viewBox="0 0 1024 1024" preserveAspectRatio="xMidYMid meet">
  <path d="M447 34L446 35L437 35L436 36L429 36L428 37L424 37L423 38L420 38L419 39L417 39L416 40L413 40L412 41L410 41L409 42L406 42L405 43L402 43L401 44L399 44L398 45L395 45L394 46L392 46L391 47L389 47L388 48L386 48L385 49L383 49L382 50L380 50L379 51L378 51L377 52L375 52L374 53L373 53L372 54L371 54L370 55L368 55L367 56L366 56L365 57L364 57L363 58L362 58L361 59L359 59L358 60L357 60L356 61L355 61L354 62L353 62L352 63L351 63L350 64L349 64L348 65L347 65L345 67L344 67L343 68L342 68L341 69L340 69L339 70L338 70L336 72L335 72L334 73L333 73L332 74L331 74L330 75L329 75L327 77L326 77L325 78L324 78L323 79L322 79L321 80L320 80L319 81L318 81L317 82L316 82L315 83L314 83L313 84L312 84L311 85L310 85L309 86L307 86L306 87L304 87L303 88L301 88L300 89L298 89L297 90L295 90L294 91L291 91L290 92L286 92L285 93L276 93L275 94L270 94L269 93L263 93L262 92L261 92L258 95L258 100L259 101L259 102L260 103L260 104L261 105L261 106L269 114L270 114L272 116L273 116L274 117L275 117L276 118L278 118L279 119L280 119L281 120L283 120L284 121L283 122L282 122L280 124L279 124L277 126L276 126L273 129L272 129L256 145L256 146L252 150L252 151L249 154L249 155L247 157L247 158L245 160L245 161L243 163L243 164L241 166L241 167L240 168L240 169L239 170L239 171L237 173L237 174L236 175L236 176L235 177L235 178L234 179L234 181L233 182L233 183L232 184L232 185L231 186L231 188L230 189L230 191L229 192L229 194L228 195L228 197L227 198L227 202L226 203L226 208L227 209L227 210L230 210L232 208L233 208L238 203L239 203L241 201L242 201L244 199L245 199L246 198L247 198L249 196L250 196L251 195L252 196L252 197L250 199L250 201L249 202L249 203L248 204L248 206L247 207L247 208L246 209L246 212L245 213L245 215L244 216L244 220L243 221L243 225L242 226L242 235L241 236L241 244L242 245L242 253L243 254L243 259L244 260L244 264L245 265L245 267L246 268L246 271L247 272L247 275L248 276L248 278L249 279L249 281L250 282L250 284L251 285L251 287L252 288L252 290L253 291L253 293L254 294L254 296L255 297L255 299L256 300L256 302L257 303L257 305L258 306L258 308L259 309L259 310L260 311L260 313L261 314L261 316L262 317L262 318L263 319L263 321L264 322L264 324L265 325L265 326L266 327L266 329L267 330L267 331L268 332L268 334L269 335L269 336L270 337L270 338L271 339L271 340L270 341L267 341L266 342L263 342L262 343L259 343L258 344L255 344L254 345L252 345L251 346L250 346L249 347L249 348L248 349L248 352L249 353L249 355L250 356L250 357L251 358L252 358L253 359L254 359L255 360L256 360L257 361L258 361L262 365L262 366L263 367L263 368L264 369L264 371L265 372L265 373L266 374L266 375L264 377L264 378L262 380L262 381L261 382L261 384L260 385L260 386L259 387L259 389L258 390L258 394L257 395L257 399L256 400L256 427L257 428L257 435L258 436L258 441L259 442L259 446L260 447L260 451L261 452L261 454L262 455L262 458L263 459L263 462L264 463L264 465L265 466L265 468L266 469L266 471L267 472L267 474L268 475L268 476L269 477L269 479L270 480L270 481L271 482L271 483L272 484L272 485L273 486L273 488L274 489L274 490L276 492L276 493L277 494L277 495L279 497L279 498L281 500L281 501L285 505L285 506L287 508L288 508L292 512L292 513L293 514L293 518L294 519L294 524L295 525L295 528L296 529L296 533L297 534L297 538L298 539L298 541L299 542L299 545L300 546L300 549L301 550L301 552L302 553L302 555L303 556L303 558L304 559L304 560L305 561L305 563L306 564L306 565L307 566L307 568L308 569L308 570L309 571L309 572L310 573L310 574L311 575L311 576L312 577L312 578L313 579L313 580L314 581L314 582L316 584L316 585L317 586L317 587L319 589L319 590L321 592L321 593L323 595L323 596L326 599L326 600L330 604L330 605L337 612L337 613L349 625L350 625L356 631L357 631L361 635L362 635L366 639L367 639L369 641L370 641L373 644L374 644L376 646L377 646L379 648L380 648L382 650L383 650L384 651L384 652L385 653L385 672L383 674L381 674L380 675L379 675L378 676L377 676L376 677L374 677L373 678L372 678L371 679L370 679L369 680L368 680L367 681L366 681L365 682L364 682L363 683L362 683L361 684L360 684L359 685L358 685L357 686L356 686L355 687L354 687L353 688L352 688L351 689L350 689L349 690L348 690L347 691L346 691L345 692L344 692L343 693L341 693L340 694L339 694L338 695L337 695L336 696L335 696L334 697L333 697L332 698L330 698L329 699L328 699L327 700L326 700L325 701L323 701L322 702L321 702L320 703L319 703L318 704L317 704L316 705L314 705L313 706L312 706L311 707L310 707L309 708L308 708L307 709L305 709L304 710L303 710L302 711L300 711L299 712L298 712L297 713L296 713L295 714L293 714L292 715L291 715L290 716L289 716L288 717L286 717L285 718L284 718L283 719L282 719L281 720L279 720L278 721L277 721L276 722L275 722L274 723L273 723L272 724L270 724L269 725L268 725L267 726L265 726L264 727L263 727L262 728L261 728L260 729L258 729L257 730L256 730L255 731L254 731L253 732L251 732L250 733L249 733L248 734L247 734L246 735L244 735L243 736L242 736L241 737L239 737L238 738L237 738L236 739L235 739L234 740L232 740L231 741L230 741L229 742L228 742L227 743L225 743L224 744L223 744L222 745L221 745L220 746L218 746L217 747L216 747L215 748L214 748L213 749L212 749L211 750L210 750L209 751L207 751L206 752L205 752L204 753L203 753L202 754L201 754L200 755L199 755L198 756L197 756L196 757L195 757L194 758L193 758L192 759L191 759L190 760L189 760L188 761L187 761L186 762L185 762L184 763L183 763L182 764L181 764L179 766L178 766L177 767L176 767L175 768L174 768L173 769L172 769L170 771L169 771L168 772L167 772L165 774L164 774L163 775L162 775L160 777L159 777L157 779L156 779L154 781L153 781L151 783L150 783L148 785L147 785L145 787L144 787L141 790L140 790L137 793L136 793L132 797L131 797L115 813L115 814L110 819L110 820L106 824L106 825L103 828L103 829L101 831L101 832L99 834L99 835L96 838L96 839L94 841L94 842L93 843L93 844L91 846L91 847L90 848L90 849L88 851L88 852L87 853L87 854L85 856L85 857L84 858L84 859L83 860L83 861L81 863L81 864L80 865L80 866L79 867L79 868L78 869L78 870L77 871L77 872L76 873L76 874L75 875L75 876L74 877L74 879L73 880L73 881L72 882L72 883L71 884L71 885L70 886L70 887L69 888L69 890L68 891L68 892L67 893L67 894L66 895L66 897L65 898L65 900L64 901L64 902L63 903L63 905L62 906L62 907L61 908L61 910L60 911L60 913L59 914L59 916L58 917L58 918L57 919L57 921L56 922L56 924L55 925L55 927L54 928L54 930L53 931L53 933L52 934L52 936L51 937L51 939L50 940L50 942L49 943L49 945L48 946L48 948L47 949L47 952L46 953L46 955L45 956L45 958L44 959L44 961L43 962L43 964L42 965L42 968L41 969L41 971L40 972L40 974L39 975L39 978L38 979L38 981L37 982L37 985L36 986L36 988L35 989L35 992L34 993L34 995L33 996L33 999L32 1000L32 1002L31 1003L31 1006L30 1007L30 1009L29 1010L29 1013L28 1014L28 1017L27 1018L27 1020L26 1021L26 1023L1023 1023L1023 884L1022 883L1022 882L1021 881L1021 879L1020 878L1020 876L1019 875L1019 874L1018 873L1018 871L1017 870L1017 869L1016 868L1016 867L1015 866L1015 864L1014 863L1014 862L1013 861L1013 860L1012 859L1012 858L1011 857L1011 856L1010 855L1010 854L1009 853L1009 852L1008 851L1008 850L1007 849L1007 848L1005 846L1005 845L1004 844L1004 843L1003 842L1003 841L1001 839L1001 838L999 836L999 835L997 833L997 832L995 830L995 829L992 826L992 825L989 822L989 821L984 816L984 815L963 794L962 794L958 790L957 790L953 786L952 786L949 783L948 783L945 780L944 780L942 778L941 778L938 775L937 775L935 773L934 773L932 771L931 771L929 769L928 769L927 768L926 768L924 766L923 766L921 764L920 764L919 763L918 763L916 761L915 761L914 760L913 760L911 758L910 758L909 757L908 757L906 755L905 755L904 754L903 754L902 753L901 753L899 751L898 751L897 750L896 750L895 749L894 749L892 747L891 747L890 746L889 746L888 745L887 745L886 744L885 744L884 743L883 743L881 741L880 741L879 740L878 740L877 739L876 739L875 738L874 738L873 737L872 737L871 736L870 736L869 735L868 735L867 734L866 734L865 733L864 733L863 732L862 732L861 731L860 731L859 730L858 730L857 729L856 729L855 728L854 728L853 727L852 727L851 726L850 726L849 725L848 725L847 724L846 724L845 723L844 723L843 722L842 722L841 721L840 721L839 720L838 720L837 719L836 719L835 718L833 718L832 717L831 717L830 716L829 716L828 715L827 715L826 714L825 714L824 713L823 713L822 712L821 712L820 711L819 711L818 710L816 710L815 709L814 709L813 708L812 708L811 707L810 707L809 706L808 706L807 705L805 705L804 704L803 704L802 703L801 703L800 702L799 702L798 701L796 701L795 700L794 700L793 699L792 699L791 698L790 698L789 697L788 697L787 696L785 696L784 695L783 695L782 694L781 694L780 693L779 693L778 692L776 692L775 691L774 691L773 690L772 690L771 689L769 689L768 688L767 688L766 687L765 687L764 686L763 686L762 685L761 685L760 684L758 684L757 683L756 683L755 682L754 682L753 681L752 681L751 680L750 680L749 679L747 679L746 678L745 678L744 677L743 677L734 668L733 668L731 666L730 666L728 664L727 664L726 663L725 663L724 662L723 662L721 660L720 660L719 659L718 659L717 658L716 658L715 657L714 657L713 656L712 656L711 655L710 655L709 654L708 654L707 653L706 653L705 652L703 652L702 651L700 651L699 650L696 650L695 649L691 649L690 648L689 648L688 647L688 642L687 641L687 625L686 624L686 567L687 566L687 561L688 560L688 558L690 556L690 555L693 552L693 551L695 549L695 548L697 546L697 545L699 543L699 542L700 541L700 540L701 539L701 538L702 537L702 536L703 535L703 534L704 533L704 532L705 531L705 530L706 529L706 528L707 527L707 525L708 524L708 522L709 521L709 519L710 518L710 517L711 516L713 516L714 517L724 517L725 516L729 516L730 515L733 515L734 514L735 514L736 513L737 513L738 512L740 512L741 511L742 511L744 509L745 509L747 507L748 507L749 506L750 506L754 502L755 502L769 488L769 487L772 484L772 483L774 481L774 480L776 478L776 477L778 475L778 474L780 472L780 471L781 470L781 469L783 467L783 466L784 465L784 464L785 463L785 462L786 461L786 460L787 459L787 458L788 457L788 455L789 454L789 452L790 451L790 450L791 449L791 447L792 446L792 444L793 443L793 440L794 439L794 436L795 435L795 431L796 430L796 426L797 425L797 418L798 417L798 399L797 398L797 391L796 390L796 387L795 386L795 384L794 383L794 381L793 380L793 378L792 377L792 376L791 375L791 374L790 373L790 372L788 370L788 369L786 367L786 366L776 356L775 356L772 353L771 353L770 352L769 352L768 351L767 351L766 350L765 350L764 349L764 346L765 345L765 343L766 342L766 340L767 339L767 337L768 336L768 334L769 333L769 330L770 329L770 327L771 326L771 323L772 322L772 318L773 317L773 314L774 313L774 309L775 308L775 303L776 302L776 298L777 297L777 291L778 290L777 289L778 288L778 281L779 280L779 248L780 247L783 250L783 251L787 255L788 255L789 254L790 254L791 253L791 252L792 251L792 250L791 249L791 234L790 233L790 223L789 222L789 216L788 215L788 210L787 209L787 205L786 204L786 200L785 199L785 196L784 195L784 192L783 191L783 189L782 188L782 186L781 185L781 183L780 182L780 180L779 179L779 177L778 176L778 175L777 174L777 172L776 171L776 170L775 169L775 168L774 167L774 165L773 164L773 163L771 161L771 160L770 159L770 158L769 157L769 156L768 155L768 154L766 152L766 151L765 150L765 149L763 147L763 146L760 143L760 142L757 139L757 138L741 122L740 122L737 119L736 119L733 116L732 116L731 115L730 115L728 113L727 113L726 112L725 112L724 111L723 111L722 110L721 110L720 109L719 109L718 108L717 108L716 107L714 107L713 106L711 106L710 105L708 105L707 104L703 104L702 103L696 103L695 102L695 89L694 88L694 83L693 82L693 79L692 78L692 77L691 76L691 75L690 74L690 73L687 70L684 70L684 72L685 73L685 83L684 84L684 88L683 89L683 91L682 92L682 94L680 96L679 96L678 95L678 93L677 92L677 91L676 90L676 89L675 88L675 86L674 85L674 84L673 83L673 82L672 81L672 80L671 79L671 78L670 77L670 76L668 74L668 73L666 71L666 70L664 68L664 67L662 65L662 64L658 60L658 59L646 47L645 47L643 45L642 45L639 42L638 42L637 41L636 41L635 40L634 40L633 39L632 39L631 38L630 38L629 37L627 37L626 36L617 36L615 38L615 39L622 46L622 47L626 51L626 52L628 54L628 55L629 56L629 57L631 59L631 60L632 61L632 62L633 63L633 64L634 65L634 66L635 67L635 68L634 69L633 69L631 67L630 67L627 64L626 64L623 61L622 61L621 60L620 60L618 58L617 58L616 57L615 57L614 56L613 56L612 55L611 55L610 54L608 54L607 53L606 53L605 52L603 52L602 51L601 51L600 50L598 50L597 49L594 49L593 48L591 48L590 47L587 47L586 46L583 46L582 45L579 45L578 44L574 44L573 43L569 43L568 42L563 42L562 41L557 41L556 40L550 40L549 39L543 39L542 38L541 39L540 38L534 38L533 37L526 37L525 36L524 37L523 36L515 36L514 35L513 36L512 35L498 35L497 34Z" fill="#000000"/>
</svg>