<svg xmlns="http://www.w3.org/2000/svg" viewBox="0 0 1024 1024" fill="black">
  <path d="M 447,34 L446,35 L437,35 L436,36 L429,36 L428,37 L424,37 L423,38 L420,38 L419,39 L417,39 L416,40 L413,40 L412,41 L410,41 L409,42 L406,42 L405,43 L402,43 L401,44 L399,44 L398,45 L395,45 L394,46 L392,46 L391,47 L389,47 L388,48 L386,48 L385,49 L383,49 L382,50 L380,50 L379,51 L378,51 L377,52 L375,52 L374,53 L373,53 L372,54 L371,54 L370,55 L368,55 L367,56 L366,56 L365,57 L364,57 L363,58 L362,58 L361,59 L359,59 L358,60 L357,60 L356,61 L355,61 L354,62 L353,62 L352,63 L351,63 L350,64 L349,64 L348,65 L347,65 L345,67 L344,67 L343,68 L342,68 L341,69 L340,69 L339,70 L338,70 L336,72 L335,72 L334,73 L333,73 L332,74 L331,74 L330,75 L329,75 L327,77 L326,77 L325,78 L324,78 L323,79 L322,79 L321,80 L320,80 L319,81 L318,81 L317,82 L316,82 L315,83 L314,83 L313,84 L312,84 L311,85 L310,85 L309,86 L307,86 L306,87 L304,87 L303,88 L301,88 L300,89 L298,89 L297,90 L295,90 L294,91 L291,91 L290,92 L286,92 L285,93 L276,93 L275,94 L270,94 L269,93 L263,93 L262,92 L261,92 L258,95 L258,100 L259,101 L259,102 L260,103 L260,104 L261,105 L261,106 L269,114 L270,114 L272,116 L273,116 L274,117 L275,117 L276,118 L278,118 L279,119 L280,119 L281,120 L283,120 L284,121 L283,122 L282,122 L280,124 L279,124 L277,126 L276,126 L273,129 L272,129 L256,145 L256,146 L252,150 L252,151 L249,154 L249,155 L247,157 L247,158 L245,160 L245,161 L243,163 L243,164 L241,166 L241,167 L240,168 L240,169 L239,170 L239,171 L237,173 L237,174 L236,175 L236,176 L235,177 L235,178 L234,179 L234,181 L233,182 L233,183 L232,184 L232,185 L231,186 L231,188 L230,189 L230,191 L229,192 L229,194 L228,195 L228,197 L227,198 L227,202 L226,203 L226,208 L227,209 L227,210 L230,210 L232,208 L233,208 L238,203 L239,203 L241,201 L242,201 L244,199 L245,199 L246,198 L247,198 L249,196 L250,196 L251,195 L252,196 L252,197 L250,199 L250,201 L249,202 L249,203 L248,204 L248,206 L247,207 L247,208 L246,209 L246,212 L245,213 L245,215 L244,216 L244,220 L243,221 L243,225 L242,226 L242,235 L241,236 L241,244 L242,245 L242,253 L243,254 L243,259 L244,260 L244,264 L245,265 L245,267 L246,268 L246,271 L247,272 L247,275 L248,276 L248,278 L249,279 L249,281 L250,282 L250,284 L251,285 L251,287 L252,288 L252,290 L253,291 L253,293 L254,294 L254,296 L255,297 L255,299 L256,300 L256,302 L257,303 L257,305 L258,306 L258,308 L259,309 L259,310 L260,311 L260,313 L261,314 L261,316 L262,317 L262,318 L263,319 L263,321 L264,322 L264,324 L265,325 L265,326 L266,327 L266,329 L267,330 L267,331 L268,332 L268,334 L269,335 L269,336 L270,337 L270,338 L271,339 L271,340 L270,341 L267,341 L266,342 L263,342 L262,343 L259,343 L258,344 L255,344 L254,345 L252,345 L251,346 L250,346 L249,347 L249,348 L248,349 L248,352 L249,353 L249,355 L250,356 L250,357 L251,358 L252,358 L253,359 L254,359 L255,360 L256,360 L257,361 L258,361 L262,365 L262,366 L263,367 L263,368 L264,369 L264,371 L265,372 L265,373 L266,374 L266,375 L264,377 L264,378 L262,380 L262,381 L261,382 L261,384 L260,385 L260,386 L259,387 L259,389 L258,390 L258,394 L257,395 L257,399 L256,400 L256,427 L257,428 L257,435 L258,436 L258,441 L259,442 L259,446 L260,447 L260,451 L261,452 L261,454 L262,455 L262,458 L263,459 L263,462 L264,463 L264,465 L265,466 L265,468 L266,469 L266,471 L267,472 L267,474 L268,475 L268,476 L269,477 L269,479 L270,480 L270,481 L271,482 L271,483 L272,484 L272,485 L273,486 L273,488 L274,489 L274,490 L276,492 L276,493 L277,494 L277,495 L279,497 L279,498 L281,500 L281,501 L285,505 L285,506 L287,508 L288,508 L292,512 L292,513 L293,514 L293,518 L294,519 L294,524 L295,525 L295,528 L296,529 L296,533 L297,534 L297,538 L298,539 L298,541 L299,542 L299,545 L300,546 L300,549 L301,550 L301,552 L302,553 L302,555 L303,556 L303,558 L304,559 L304,560 L305,561 L305,563 L306,564 L306,565 L307,566 L307,568 L308,569 L308,570 L309,571 L309,572 L310,573 L310,574 L311,575 L311,576 L312,577 L312,578 L313,579 L313,580 L314,581 L314,582 L316,584 L316,585 L317,586 L317,587 L319,589 L319,590 L321,592 L321,593 L323,595 L323,596 L326,599 L326,600 L330,604 L330,605 L337,612 L337,613 L349,625 L350,625 L356,631 L357,631 L361,635 L362,635 L366,639 L367,639 L369,641 L370,641 L373,644 L374,644 L376,646 L377,646 L379,648 L380,648 L382,650 L383,650 L384,651 L384,652 L385,653 L385,672 L383,674 L381,674 L380,675 L379,675 L378,676 L377,676 L376,677 L374,677 L373,678 L372,678 L371,679 L370,679 L369,680 L368,680 L367,681 L366,681 L365,682 L364,682 L363,683 L362,683 L361,684 L360,684 L359,685 L358,685 L357,686 L356,686 L355,687 L354,687 L353,688 L352,688 L351,689 L350,689 L349,690 L348,690 L347,691 L346,691 L345,692 L344,692 L343,693 L341,693 L340,694 L339,694 L338,695 L337,695 L336,696 L335,696 L334,697 L333,697 L332,698 L330,698 L329,699 L328,699 L327,700 L326,700 L325,701 L323,701 L322,702 L321,702 L320,703 L319,703 L318,704 L317,704 L316,705 L314,705 L313,706 L312,706 L311,707 L310,707 L309,708 L308,708 L307,709 L305,709 L304,710 L303,710 L302,711 L300,711 L299,712 L298,712 L297,713 L296,713 L295,714 L293,714 L292,715 L291,715 L290,716 L289,716 L288,717 L286,717 L285,718 L284,718 L283,719 L282,719 L281,720 L279,720 L278,721 L277,721 L276,722 L275,722 L274,723 L273,723 L272,724 L270,724 L269,725 L268,725 L267,726 L265,726 L264,727 L263,727 L262,728 L261,728 L260,729 L258,729 L257,730 L256,730 L255,731 L254,731 L253,732 L251,732 L250,733 L249,733 L248,734 L247,734 L246,735 L244,735 L243,736 L242,736 L241,737 L239,737 L238,738 L237,738 L236,739 L235,739 L234,740 L232,740 L231,741 L230,741 L229,742 L228,742 L227,743 L225,743 L224,744 L223,744 L222,745 L221,745 L220,746 L218,746 L217,747 L216,747 L215,748 L214,748 L213,749 L212,749 L211,750 L210,750 L209,751 L207,751 L206,752 L205,752 L204,753 L203,753 L202,754 L201,754 L200,755 L199,755 L198,756 L197,756 L196,757 L195,757 L194,758 L193,758 L192,759 L191,759 L190,760 L189,760 L188,761 L187,761 L186,762 L185,762 L184,763 L183,763 L182,764 L181,764 L179,766 L178,766 L177,767 L176,767 L175,768 L174,768 L173,769 L172,769 L170,771 L169,771 L168,772 L167,772 L165,774 L164,774 L163,775 L162,775 L160,777 L159,777 L157,779 L156,779 L154,781 L153,781 L151,783 L150,783 L148,785 L147,785 L145,787 L144,787 L141,790 L140,790 L137,793 L136,793 L132,797 L131,797 L115,813 L115,814 L110,819 L110,820 L106,824 L106,825 L103,828 L103,829 L101,831 L101,832 L99,834 L99,835 L96,838 L96,839 L94,841 L94,842 L93,843 L93,844 L91,846 L91,847 L90,848 L90,849 L88,851 L88,852 L87,853 L87,854 L85,856 L85,857 L84,858 L84,859 L83,860 L83,861 L81,863 L81,864 L80,865 L80,866 L79,867 L79,868 L78,869 L78,870 L77,871 L77,872 L76,873 L76,874 L75,875 L75,876 L74,877 L74,879 L73,880 L73,881 L72,882 L72,883 L71,884 L71,885 L70,886 L70,887 L69,888 L69,890 L68,891 L68,892 L67,893 L67,894 L66,895 L66,897 L65,898 L65,900 L64,901 L64,902 L63,903 L63,905 L62,906 L62,907 L61,908 L61,910 L60,911 L60,913 L59,914 L59,916 L58,917 L58,918 L57,919 L57,921 L56,922 L56,924 L55,925 L55,927 L54,928 L54,930 L53,931 L53,933 L52,934 L52,936 L51,937 L51,939 L50,940 L50,942 L49,943 L49,945 L48,946 L48,948 L47,949 L47,952 L46,953 L46,955 L45,956 L45,958 L44,959 L44,961 L43,962 L43,964 L42,965 L42,968 L41,969 L41,971 L40,972 L40,974 L39,975 L39,978 L38,979 L38,981 L37,982 L37,985 L36,986 L36,988 L35,989 L35,992 L34,993 L34,995 L33,996 L33,999 L32,1000 L32,1002 L31,1003 L31,1006 L30,1007 L30,1009 L29,1010 L29,1013 L28,1014 L28,1017 L27,1018 L27,1020 L26,1021 L26,1023 L1023,1023 L1023,884 L1022,883 L1022,882 L1021,881 L1021,879 L1020,878 L1020,876 L1019,875 L1019,874 L1018,873 L1018,871 L1017,870 L1017,869 L1016,868 L1016,867 L1015,866 L1015,864 L1014,863 L1014,862 L1013,861 L1013,860 L1012,859 L1012,858 L1011,857 L1011,856 L1010,855 L1010,854 L1009,853 L1009,852 L1008,851 L1008,850 L1007,849 L1007,848 L1005,846 L1005,845 L1004,844 L1004,843 L1003,842 L1003,841 L1001,839 L1001,838 L999,836 L999,835 L997,833 L997,832 L995,830 L995,829 L992,826 L992,825 L989,822 L989,821 L984,816 L984,815 L963,794 L962,794 L958,790 L957,790 L953,786 L952,786 L949,783 L948,783 L945,780 L944,780 L942,778 L941,778 L938,775 L937,775 L935,773 L934,773 L932,771 L931,771 L929,769 L928,769 L927,768 L926,768 L924,766 L923,766 L921,764 L920,764 L919,763 L918,763 L916,761 L915,761 L914,760 L913,760 L911,758 L910,758 L909,757 L908,757 L906,755 L905,755 L904,754 L903,754 L902,753 L901,753 L899,751 L898,751 L897,750 L896,750 L895,749 L894,749 L892,747 L891,747 L890,746 L889,746 L888,745 L887,745 L886,744 L885,744 L884,743 L883,743 L881,741 L880,741 L879,740 L878,740 L877,739 L876,739 L875,738 L874,738 L873,737 L872,737 L871,736 L870,736 L869,735 L868,735 L867,734 L866,734 L865,733 L864,733 L863,732 L862,732 L861,731 L860,731 L859,730 L858,730 L857,729 L856,729 L855,728 L854,728 L853,727 L852,727 L851,726 L850,726 L849,725 L848,725 L847,724 L846,724 L845,723 L844,723 L843,722 L842,722 L841,721 L840,721 L839,720 L838,720 L837,719 L836,719 L835,718 L833,718 L832,717 L831,717 L830,716 L829,716 L828,715 L827,715 L826,714 L825,714 L824,713 L823,713 L822,712 L821,712 L820,711 L819,711 L818,710 L816,710 L815,709 L814,709 L813,708 L812,708 L811,707 L810,707 L809,706 L808,706 L807,705 L805,705 L804,704 L803,704 L802,703 L801,703 L800,702 L799,702 L798,701 L796,701 L795,700 L794,700 L793,699 L792,699 L791,698 L790,698 L789,697 L788,697 L787,696 L785,696 L784,695 L783,695 L782,694 L781,694 L780,693 L779,693 L778,692 L776,692 L775,691 L774,691 L773,690 L772,690 L771,689 L769,689 L768,688 L767,688 L766,687 L765,687 L764,686 L763,686 L762,685 L761,685 L760,684 L758,684 L757,683 L756,683 L755,682 L754,682 L753,681 L752,681 L751,680 L750,680 L749,679 L747,679 L746,678 L745,678 L744,677 L743,677 L734,668 L733,668 L731,666 L730,666 L728,664 L727,664 L726,663 L725,663 L724,662 L723,662 L721,660 L720,660 L719,659 L718,659 L717,658 L716,658 L715,657 L714,657 L713,656 L712,656 L711,655 L710,655 L709,654 L708,654 L707,653 L706,653 L705,652 L703,652 L702,651 L700,651 L699,650 L696,650 L695,649 L691,649 L690,648 L689,648 L688,647 L688,642 L687,641 L687,625 L686,624 L686,567 L687,566 L687,561 L688,560 L688,558 L690,556 L690,555 L693,552 L693,551 L695,549 L695,548 L697,546 L697,545 L699,543 L699,542 L700,541 L700,540 L701,539 L701,538 L702,537 L702,536 L703,535 L703,534 L704,533 L704,532 L705,531 L705,530 L706,529 L706,528 L707,527 L707,525 L708,524 L708,522 L709,521 L709,519 L710,518 L710,517 L711,516 L713,516 L714,517 L724,517 L725,516 L729,516 L730,515 L733,515 L734,514 L735,514 L736,513 L737,513 L738,512 L740,512 L741,511 L742,511 L744,509 L745,509 L747,507 L748,507 L749,506 L750,506 L754,502 L755,502 L769,488 L769,487 L772,484 L772,483 L774,481 L774,480 L776,478 L776,477 L778,475 L778,474 L780,472 L780,471 L781,470 L781,469 L783,467 L783,466 L784,465 L784,464 L785,463 L785,462 L786,461 L786,460 L787,459 L787,458 L788,457 L788,455 L789,454 L789,452 L790,451 L790,450 L791,449 L791,447 L792,446 L792,444 L793,443 L793,440 L794,439 L794,436 L795,435 L795,431 L796,430 L796,426 L797,425 L797,418 L798,417 L798,399 L797,398 L797,391 L796,390 L796,387 L795,386 L795,384 L794,383 L794,381 L793,380 L793,378 L792,377 L792,376 L791,375 L791,374 L790,373 L790,372 L788,370 L788,369 L786,367 L786,366 L776,356 L775,356 L772,353 L771,353 L770,352 L769,352 L768,351 L767,351 L766,350 L765,350 L764,349 L764,346 L765,345 L765,343 L766,342 L766,340 L767,339 L767,337 L768,336 L768,334 L769,333 L769,330 L770,329 L770,327 L771,326 L771,323 L772,322 L772,318 L773,317 L773,314 L774,313 L774,309 L775,308 L775,303 L776,302 L776,298 L777,297 L777,291 L778,290 L777,289 L778,288 L778,281 L779,280 L779,248 L780,247 L783,250 L783,251 L787,255 L788,255 L789,254 L790,254 L791,253 L791,252 L792,251 L792,250 L791,249 L791,234 L790,233 L790,223 L789,222 L789,216 L788,215 L788,210 L787,209 L787,205 L786,204 L786,200 L785,199 L785,196 L784,195 L784,192 L783,191 L783,189 L782,188 L782,186 L781,185 L781,183 L780,182 L780,180 L779,179 L779,177 L778,176 L778,175 L777,174 L777,172 L776,171 L776,170 L775,169 L775,168 L774,167 L774,165 L773,164 L773,163 L771,161 L771,160 L770,159 L770,158 L769,157 L769,156 L768,155 L768,154 L766,152 L766,151 L765,150 L765,149 L763,147 L763,146 L760,143 L760,142 L757,139 L757,138 L741,122 L740,122 L737,119 L736,119 L733,116 L732,116 L731,115 L730,115 L728,113 L727,113 L726,112 L725,112 L724,111 L723,111 L722,110 L721,110 L720,109 L719,109 L718,108 L717,108 L716,107 L714,107 L713,106 L711,106 L710,105 L708,105 L707,104 L703,104 L702,103 L696,103 L695,102 L695,89 L694,88 L694,83 L693,82 L693,79 L692,78 L692,77 L691,76 L691,75 L690,74 L690,73 L687,70 L684,70 L684,72 L685,73 L685,83 L684,84 L684,88 L683,89 L683,91 L682,92 L682,94 L680,96 L679,96 L678,95 L678,93 L677,92 L677,91 L676,90 L676,89 L675,88 L675,86 L674,85 L674,84 L673,83 L673,82 L672,81 L672,80 L671,79 L671,78 L670,77 L670,76 L668,74 L668,73 L666,71 L666,70 L664,68 L664,67 L662,65 L662,64 L658,60 L658,59 L646,47 L645,47 L643,45 L642,45 L639,42 L638,42 L637,41 L636,41 L635,40 L634,40 L633,39 L632,39 L631,38 L630,38 L629,37 L627,37 L626,36 L617,36 L615,38 L615,39 L622,46 L622,47 L626,51 L626,52 L628,54 L628,55 L629,56 L629,57 L631,59 L631,60 L632,61 L632,62 L633,63 L633,64 L634,65 L634,66 L635,67 L635,68 L634,69 L633,69 L631,67 L630,67 L627,64 L626,64 L623,61 L622,61 L621,60 L620,60 L618,58 L617,58 L616,57 L615,57 L614,56 L613,56 L612,55 L611,55 L610,54 L608,54 L607,53 L606,53 L605,52 L603,52 L602,51 L601,51 L600,50 L598,50 L597,49 L594,49 L593,48 L591,48 L590,47 L587,47 L586,46 L583,46 L582,45 L579,45 L578,44 L574,44 L573,43 L569,43 L568,42 L563,42 L562,41 L557,41 L556,40 L550,40 L549,39 L543,39 L542,38 L541,39 L540,38 L534,38 L533,37 L526,37 L525,36 L524,37 L523,36 L515,36 L514,35 L513,36 L512,35 L498,35 L497,34 Z " />
</svg>